<svg width="256" height="256" viewBox="0 0 200 200" xmlns="http://www.w3.org/2000/svg">
  <defs>
    <linearGradient id="brandGradient" x1="0%" y1="0%" x2="100%" y2="100%">
      <stop offset="0%" style="stop-color:#3b82f6;stop-opacity:1" />
      <stop offset="100%" style="stop-color:#34d399;stop-opacity:1" />
    </linearGradient>
  </defs>
  <rect width="200" height="200" rx="40" fill="#051424" />
  <path d="M60 50 C 45 50, 40 60, 40 100 C 40 140, 45 150, 60 150 L 140 150 C 155 150, 160 140, 160 130 L 160 115 L 135 115 L 135 125 L 65 125 C 60 125, 60 120, 60 100 C 60 80, 60 75, 65 75 L 135 75 L 135 85 L 160 85 L 160 70 C 160 60, 155 50, 140 50 Z" fill="url(#brandGradient)" />
  <path d="M100 85 L 130 100 L 100 115 Z" fill="#ffffff" />
</svg>